<mxfile host="app.diagrams.net" modified="2021-06-28T04:59:12.216Z" agent="5.0 (Windows NT 10.0; Win64; x64) AppleWebKit/537.36 (KHTML, like Gecko) Chrome/91.0.4472.124 Safari/537.36" etag="ufMTiPL-IzuxmvKwQQS0" version="14.8.1" type="github">
  <diagram id="DHDmuU8fqlonNpJDwIPR" name="Page-1">
    <mxGraphModel dx="782" dy="436" grid="1" gridSize="10" guides="1" tooltips="1" connect="1" arrows="1" fold="1" page="1" pageScale="1" pageWidth="850" pageHeight="1100" math="0" shadow="0">
      <root>
        <mxCell id="0" />
        <mxCell id="1" parent="0" />
        <mxCell id="cWBNcGxBLnqjklh-X1Ns-1" value="&lt;font style=&quot;font-size: 13px&quot; face=&quot;B Zar&quot;&gt;کاربر&lt;/font&gt;" style="shape=umlActor;verticalLabelPosition=bottom;verticalAlign=top;html=1;outlineConnect=0;" vertex="1" parent="1">
          <mxGeometry x="60" y="300" width="30" height="60" as="geometry" />
        </mxCell>
        <mxCell id="cWBNcGxBLnqjklh-X1Ns-2" value="" style="verticalLabelPosition=bottom;verticalAlign=top;html=1;shape=mxgraph.basic.rect;fillColor2=none;strokeWidth=1;size=20;indent=5;direction=south;" vertex="1" parent="1">
          <mxGeometry x="230" y="20" width="580" height="1010" as="geometry" />
        </mxCell>
        <mxCell id="cWBNcGxBLnqjklh-X1Ns-3" value="&lt;font face=&quot;B Zar&quot; style=&quot;font-size: 13px&quot;&gt;احراز هویت&lt;/font&gt;" style="strokeWidth=2;html=1;shape=mxgraph.flowchart.start_1;whiteSpace=wrap;fillColor=#FFFFFF;" vertex="1" parent="1">
          <mxGeometry x="410" y="50" width="130" height="50" as="geometry" />
        </mxCell>
        <mxCell id="cWBNcGxBLnqjklh-X1Ns-4" value="&lt;font face=&quot;B Zar&quot; style=&quot;font-size: 13px&quot;&gt;ورود&lt;/font&gt;" style="strokeWidth=2;html=1;shape=mxgraph.flowchart.start_1;whiteSpace=wrap;" vertex="1" parent="1">
          <mxGeometry x="330" y="150" width="90" height="40" as="geometry" />
        </mxCell>
        <mxCell id="cWBNcGxBLnqjklh-X1Ns-5" value="&lt;font face=&quot;B Zar&quot; style=&quot;font-size: 13px&quot;&gt;ثبت نام&lt;/font&gt;" style="strokeWidth=2;html=1;shape=mxgraph.flowchart.start_1;whiteSpace=wrap;" vertex="1" parent="1">
          <mxGeometry x="522" y="150" width="90" height="40" as="geometry" />
        </mxCell>
        <mxCell id="cWBNcGxBLnqjklh-X1Ns-6" value="" style="endArrow=none;dashed=1;html=1;exitX=0.5;exitY=0;exitDx=0;exitDy=0;exitPerimeter=0;entryX=0.145;entryY=0.855;entryDx=0;entryDy=0;entryPerimeter=0;startArrow=classic;startFill=1;" edge="1" parent="1" source="cWBNcGxBLnqjklh-X1Ns-4" target="cWBNcGxBLnqjklh-X1Ns-3">
          <mxGeometry width="50" height="50" relative="1" as="geometry">
            <mxPoint x="300" y="140" as="sourcePoint" />
            <mxPoint x="340" y="90" as="targetPoint" />
          </mxGeometry>
        </mxCell>
        <mxCell id="cWBNcGxBLnqjklh-X1Ns-7" value="" style="endArrow=none;dashed=1;html=1;entryX=0.855;entryY=0.855;entryDx=0;entryDy=0;entryPerimeter=0;startArrow=classic;startFill=1;" edge="1" parent="1" source="cWBNcGxBLnqjklh-X1Ns-5" target="cWBNcGxBLnqjklh-X1Ns-3">
          <mxGeometry width="50" height="50" relative="1" as="geometry">
            <mxPoint x="455" y="150" as="sourcePoint" />
            <mxPoint x="425" y="90" as="targetPoint" />
          </mxGeometry>
        </mxCell>
        <mxCell id="cWBNcGxBLnqjklh-X1Ns-8" value="&lt;font face=&quot;Times New Roman&quot; style=&quot;font-size: 13px&quot;&gt;include&lt;/font&gt;" style="text;html=1;resizable=0;autosize=1;align=center;verticalAlign=middle;points=[];fillColor=none;strokeColor=none;rounded=0;rotation=-45;direction=east;" vertex="1" parent="1">
          <mxGeometry x="368.25" y="100" width="50" height="20" as="geometry" />
        </mxCell>
        <mxCell id="cWBNcGxBLnqjklh-X1Ns-9" value="&lt;font face=&quot;Times New Roman&quot; style=&quot;font-size: 13px&quot;&gt;include&lt;/font&gt;" style="text;html=1;resizable=0;autosize=1;align=center;verticalAlign=middle;points=[];fillColor=none;strokeColor=none;rounded=0;rotation=60;" vertex="1" parent="1">
          <mxGeometry x="524.5" y="100" width="50" height="20" as="geometry" />
        </mxCell>
        <mxCell id="cWBNcGxBLnqjklh-X1Ns-10" value="&lt;font face=&quot;B Zar&quot; style=&quot;font-size: 13px&quot;&gt;مشاهده دسته بندی ها&lt;/font&gt;" style="strokeWidth=2;html=1;shape=mxgraph.flowchart.start_1;whiteSpace=wrap;" vertex="1" parent="1">
          <mxGeometry x="323.25" y="440" width="132.5" height="60" as="geometry" />
        </mxCell>
        <mxCell id="cWBNcGxBLnqjklh-X1Ns-11" value="&lt;font face=&quot;B Zar&quot; style=&quot;font-size: 13px&quot;&gt;تکمیل حساب کاربری&lt;/font&gt;" style="strokeWidth=2;html=1;shape=mxgraph.flowchart.start_1;whiteSpace=wrap;" vertex="1" parent="1">
          <mxGeometry x="420" y="230" width="125" height="60" as="geometry" />
        </mxCell>
        <mxCell id="cWBNcGxBLnqjklh-X1Ns-12" value="&lt;font style=&quot;font-size: 13px&quot; face=&quot;Times New Roman&quot;&gt;*&lt;/font&gt;" style="text;html=1;strokeColor=none;fillColor=none;align=center;verticalAlign=middle;whiteSpace=wrap;rounded=0;" vertex="1" parent="1">
          <mxGeometry x="373.25" y="50" width="40" height="20" as="geometry" />
        </mxCell>
        <mxCell id="cWBNcGxBLnqjklh-X1Ns-13" value="&lt;font style=&quot;font-size: 13px&quot; face=&quot;Times New Roman&quot;&gt;*&lt;/font&gt;" style="text;html=1;strokeColor=none;fillColor=none;align=center;verticalAlign=middle;whiteSpace=wrap;rounded=0;" vertex="1" parent="1">
          <mxGeometry x="110" y="300" width="40" height="20" as="geometry" />
        </mxCell>
        <mxCell id="cWBNcGxBLnqjklh-X1Ns-14" value="&lt;font style=&quot;font-size: 13px&quot; face=&quot;Times New Roman&quot;&gt;*&lt;/font&gt;" style="text;html=1;strokeColor=none;fillColor=none;align=center;verticalAlign=middle;whiteSpace=wrap;rounded=0;" vertex="1" parent="1">
          <mxGeometry x="385" y="240" width="40" height="20" as="geometry" />
        </mxCell>
        <mxCell id="cWBNcGxBLnqjklh-X1Ns-15" value="&lt;font style=&quot;font-size: 13px&quot; face=&quot;Times New Roman&quot;&gt;*&lt;/font&gt;" style="text;html=1;strokeColor=none;fillColor=none;align=center;verticalAlign=middle;whiteSpace=wrap;rounded=0;" vertex="1" parent="1">
          <mxGeometry x="130" y="320" width="40" height="20" as="geometry" />
        </mxCell>
        <mxCell id="cWBNcGxBLnqjklh-X1Ns-16" value="&lt;font face=&quot;B Zar&quot; style=&quot;font-size: 13px&quot;&gt;ثبت امتیاز&lt;/font&gt;" style="strokeWidth=2;html=1;shape=mxgraph.flowchart.start_1;whiteSpace=wrap;" vertex="1" parent="1">
          <mxGeometry x="295" y="326" width="125" height="60" as="geometry" />
        </mxCell>
        <mxCell id="cWBNcGxBLnqjklh-X1Ns-18" value="&lt;font face=&quot;B Zar&quot; style=&quot;font-size: 13px&quot;&gt;ثبت دوره&lt;/font&gt;" style="strokeWidth=2;html=1;shape=mxgraph.flowchart.start_1;whiteSpace=wrap;" vertex="1" parent="1">
          <mxGeometry x="522" y="440" width="125" height="60" as="geometry" />
        </mxCell>
        <mxCell id="cWBNcGxBLnqjklh-X1Ns-19" value="&lt;font face=&quot;B Zar&quot; style=&quot;font-size: 13px&quot;&gt;مشاهده جلسات&lt;/font&gt;" style="strokeWidth=2;html=1;shape=mxgraph.flowchart.start_1;whiteSpace=wrap;" vertex="1" parent="1">
          <mxGeometry x="440" y="540" width="125" height="60" as="geometry" />
        </mxCell>
        <mxCell id="cWBNcGxBLnqjklh-X1Ns-20" value="&lt;font style=&quot;font-size: 13px&quot; face=&quot;B Zar&quot;&gt;مشاهده دوره های پیشنهادی&lt;/font&gt;" style="strokeWidth=2;html=1;shape=mxgraph.flowchart.start_1;whiteSpace=wrap;" vertex="1" parent="1">
          <mxGeometry x="420" y="670" width="125" height="60" as="geometry" />
        </mxCell>
        <mxCell id="cWBNcGxBLnqjklh-X1Ns-21" value="&lt;font face=&quot;B Zar&quot; style=&quot;font-size: 13px&quot;&gt;مشاهده دوره ها&lt;/font&gt;" style="strokeWidth=2;html=1;shape=mxgraph.flowchart.start_1;whiteSpace=wrap;" vertex="1" parent="1">
          <mxGeometry x="285" y="540" width="125" height="60" as="geometry" />
        </mxCell>
        <mxCell id="cWBNcGxBLnqjklh-X1Ns-22" value="&lt;font face=&quot;B Zar&quot; style=&quot;font-size: 13px&quot;&gt;مشاهده تاریخچه فعالیت ها&lt;/font&gt;" style="strokeWidth=2;html=1;shape=mxgraph.flowchart.start_1;whiteSpace=wrap;" vertex="1" parent="1">
          <mxGeometry x="363.25" y="930" width="125" height="60" as="geometry" />
        </mxCell>
        <mxCell id="cWBNcGxBLnqjklh-X1Ns-23" value="" style="endArrow=none;dashed=1;html=1;exitX=0.032;exitY=0.656;exitDx=0;exitDy=0;exitPerimeter=0;startArrow=classic;startFill=1;entryX=0.987;entryY=0.711;entryDx=0;entryDy=0;entryPerimeter=0;" edge="1" parent="1" source="cWBNcGxBLnqjklh-X1Ns-18" target="cWBNcGxBLnqjklh-X1Ns-10">
          <mxGeometry width="50" height="50" relative="1" as="geometry">
            <mxPoint x="600" y="350" as="sourcePoint" />
            <mxPoint x="600" y="363" as="targetPoint" />
          </mxGeometry>
        </mxCell>
        <mxCell id="cWBNcGxBLnqjklh-X1Ns-24" value="" style="endArrow=none;dashed=1;html=1;exitX=0.145;exitY=0.145;exitDx=0;exitDy=0;exitPerimeter=0;entryX=0.66;entryY=1;entryDx=0;entryDy=0;entryPerimeter=0;startArrow=classic;startFill=1;" edge="1" parent="1" source="cWBNcGxBLnqjklh-X1Ns-19" target="cWBNcGxBLnqjklh-X1Ns-10">
          <mxGeometry width="50" height="50" relative="1" as="geometry">
            <mxPoint x="590" y="428.63" as="sourcePoint" />
            <mxPoint x="593.875" y="401.29999999999995" as="targetPoint" />
          </mxGeometry>
        </mxCell>
        <mxCell id="cWBNcGxBLnqjklh-X1Ns-25" value="" style="endArrow=none;dashed=1;html=1;entryX=0.632;entryY=1.044;entryDx=0;entryDy=0;entryPerimeter=0;startArrow=classic;startFill=1;" edge="1" parent="1" source="cWBNcGxBLnqjklh-X1Ns-10" target="cWBNcGxBLnqjklh-X1Ns-16">
          <mxGeometry width="50" height="50" relative="1" as="geometry">
            <mxPoint x="487" y="380" as="sourcePoint" />
            <mxPoint x="501.9299999999999" y="312.75" as="targetPoint" />
          </mxGeometry>
        </mxCell>
        <mxCell id="cWBNcGxBLnqjklh-X1Ns-26" value="&lt;font face=&quot;Times New Roman&quot; style=&quot;font-size: 13px&quot;&gt;include&lt;/font&gt;" style="text;html=1;resizable=0;autosize=1;align=center;verticalAlign=middle;points=[];fillColor=none;strokeColor=none;rounded=0;rotation=0;direction=east;" vertex="1" parent="1">
          <mxGeometry x="468.25" y="455" width="50" height="20" as="geometry" />
        </mxCell>
        <mxCell id="cWBNcGxBLnqjklh-X1Ns-27" value="&lt;font face=&quot;Times New Roman&quot; style=&quot;font-size: 13px&quot;&gt;include&lt;/font&gt;" style="text;html=1;resizable=0;autosize=1;align=center;verticalAlign=middle;points=[];fillColor=none;strokeColor=none;rounded=0;rotation=50;direction=east;" vertex="1" parent="1">
          <mxGeometry x="418.25" y="510" width="50" height="20" as="geometry" />
        </mxCell>
        <mxCell id="cWBNcGxBLnqjklh-X1Ns-28" value="&lt;font face=&quot;Times New Roman&quot; style=&quot;font-size: 13px&quot;&gt;extend&lt;/font&gt;" style="text;html=1;resizable=0;autosize=1;align=center;verticalAlign=middle;points=[];fillColor=none;strokeColor=none;rounded=0;rotation=0;direction=east;" vertex="1" parent="1">
          <mxGeometry x="375" y="390" width="50" height="20" as="geometry" />
        </mxCell>
        <mxCell id="cWBNcGxBLnqjklh-X1Ns-30" value="" style="endArrow=none;html=1;rounded=0;exitX=0;exitY=1;exitDx=0;exitDy=0;entryX=1;entryY=1;entryDx=0;entryDy=0;" edge="1" parent="1" source="cWBNcGxBLnqjklh-X1Ns-13" target="cWBNcGxBLnqjklh-X1Ns-12">
          <mxGeometry relative="1" as="geometry">
            <mxPoint x="370" y="180" as="sourcePoint" />
            <mxPoint x="400" y="70" as="targetPoint" />
            <Array as="points">
              <mxPoint x="140" y="320" />
              <mxPoint x="140" y="70" />
            </Array>
          </mxGeometry>
        </mxCell>
        <mxCell id="cWBNcGxBLnqjklh-X1Ns-31" value="" style="endArrow=none;html=1;rounded=0;" edge="1" parent="1">
          <mxGeometry relative="1" as="geometry">
            <mxPoint x="110" y="340" as="sourcePoint" />
            <mxPoint x="420" y="260" as="targetPoint" />
            <Array as="points">
              <mxPoint x="160" y="340" />
              <mxPoint x="160" y="260" />
            </Array>
          </mxGeometry>
        </mxCell>
        <mxCell id="cWBNcGxBLnqjklh-X1Ns-33" value="" style="endArrow=none;html=1;rounded=0;entryX=0;entryY=0.5;entryDx=0;entryDy=0;entryPerimeter=0;" edge="1" parent="1" target="cWBNcGxBLnqjklh-X1Ns-10">
          <mxGeometry relative="1" as="geometry">
            <mxPoint x="110" y="360" as="sourcePoint" />
            <mxPoint x="530" y="420" as="targetPoint" />
            <Array as="points">
              <mxPoint x="140" y="360" />
              <mxPoint x="140" y="460" />
              <mxPoint x="140" y="470" />
            </Array>
          </mxGeometry>
        </mxCell>
        <mxCell id="cWBNcGxBLnqjklh-X1Ns-34" value="" style="endArrow=none;html=1;rounded=0;entryX=0.075;entryY=0.778;entryDx=0;entryDy=0;entryPerimeter=0;" edge="1" parent="1" target="cWBNcGxBLnqjklh-X1Ns-20">
          <mxGeometry relative="1" as="geometry">
            <mxPoint x="110" y="370" as="sourcePoint" />
            <mxPoint x="530" y="550" as="targetPoint" />
            <Array as="points">
              <mxPoint x="110" y="620" />
              <mxPoint x="110" y="720" />
              <mxPoint x="310" y="720" />
            </Array>
          </mxGeometry>
        </mxCell>
        <mxCell id="cWBNcGxBLnqjklh-X1Ns-35" value="&lt;font style=&quot;font-size: 13px&quot; face=&quot;Times New Roman&quot;&gt;*&lt;/font&gt;" style="text;html=1;strokeColor=none;fillColor=none;align=center;verticalAlign=middle;whiteSpace=wrap;rounded=0;" vertex="1" parent="1">
          <mxGeometry x="110" y="346" width="40" height="20" as="geometry" />
        </mxCell>
        <mxCell id="cWBNcGxBLnqjklh-X1Ns-36" value="&lt;font style=&quot;font-size: 13px&quot; face=&quot;Times New Roman&quot;&gt;*&lt;/font&gt;" style="text;html=1;strokeColor=none;fillColor=none;align=center;verticalAlign=middle;whiteSpace=wrap;rounded=0;" vertex="1" parent="1">
          <mxGeometry x="100" y="375" width="40" height="20" as="geometry" />
        </mxCell>
        <mxCell id="cWBNcGxBLnqjklh-X1Ns-37" value="&lt;font style=&quot;font-size: 13px&quot; face=&quot;Times New Roman&quot;&gt;*&lt;/font&gt;" style="text;html=1;strokeColor=none;fillColor=none;align=center;verticalAlign=middle;whiteSpace=wrap;rounded=0;" vertex="1" parent="1">
          <mxGeometry x="270" y="455" width="40" height="20" as="geometry" />
        </mxCell>
        <mxCell id="cWBNcGxBLnqjklh-X1Ns-38" value="&lt;font style=&quot;font-size: 13px&quot; face=&quot;Times New Roman&quot;&gt;*&lt;/font&gt;" style="text;html=1;strokeColor=none;fillColor=none;align=center;verticalAlign=middle;whiteSpace=wrap;rounded=0;" vertex="1" parent="1">
          <mxGeometry x="385" y="690" width="40" height="20" as="geometry" />
        </mxCell>
        <mxCell id="cWBNcGxBLnqjklh-X1Ns-39" value="" style="endArrow=none;dashed=1;html=1;entryX=0.413;entryY=0.978;entryDx=0;entryDy=0;entryPerimeter=0;startArrow=classic;startFill=1;exitX=0.403;exitY=0.006;exitDx=0;exitDy=0;exitPerimeter=0;" edge="1" parent="1" source="cWBNcGxBLnqjklh-X1Ns-21" target="cWBNcGxBLnqjklh-X1Ns-10">
          <mxGeometry width="50" height="50" relative="1" as="geometry">
            <mxPoint x="521.9994498381878" y="647.25" as="sourcePoint" />
            <mxPoint x="488.02" y="590" as="targetPoint" />
          </mxGeometry>
        </mxCell>
        <mxCell id="cWBNcGxBLnqjklh-X1Ns-40" value="&lt;font face=&quot;Times New Roman&quot; style=&quot;font-size: 13px&quot;&gt;include&lt;/font&gt;" style="text;html=1;resizable=0;autosize=1;align=center;verticalAlign=middle;points=[];fillColor=none;strokeColor=none;rounded=0;rotation=-45;" vertex="1" parent="1">
          <mxGeometry x="318.25" y="510" width="50" height="20" as="geometry" />
        </mxCell>
        <mxCell id="cWBNcGxBLnqjklh-X1Ns-41" value="" style="endArrow=none;html=1;rounded=0;entryX=0;entryY=0.5;entryDx=0;entryDy=0;entryPerimeter=0;" edge="1" parent="1" target="cWBNcGxBLnqjklh-X1Ns-22">
          <mxGeometry relative="1" as="geometry">
            <mxPoint x="80" y="390" as="sourcePoint" />
            <mxPoint x="80" y="600" as="targetPoint" />
            <Array as="points">
              <mxPoint x="80" y="770" />
              <mxPoint x="80" y="960" />
            </Array>
          </mxGeometry>
        </mxCell>
        <mxCell id="cWBNcGxBLnqjklh-X1Ns-42" value="&lt;font style=&quot;font-size: 13px&quot; face=&quot;Times New Roman&quot;&gt;*&lt;/font&gt;" style="text;html=1;strokeColor=none;fillColor=none;align=center;verticalAlign=middle;whiteSpace=wrap;rounded=0;" vertex="1" parent="1">
          <mxGeometry x="70" y="390" width="40" height="20" as="geometry" />
        </mxCell>
        <mxCell id="cWBNcGxBLnqjklh-X1Ns-43" value="&lt;font style=&quot;font-size: 13px&quot; face=&quot;Times New Roman&quot;&gt;*&lt;/font&gt;" style="text;html=1;strokeColor=none;fillColor=none;align=center;verticalAlign=middle;whiteSpace=wrap;rounded=0;" vertex="1" parent="1">
          <mxGeometry x="323.25" y="940" width="40" height="20" as="geometry" />
        </mxCell>
        <mxCell id="cWBNcGxBLnqjklh-X1Ns-44" value="&lt;font face=&quot;B Zar&quot; style=&quot;font-size: 13px&quot;&gt;مشاهده جلسات&lt;/font&gt;" style="strokeWidth=2;html=1;shape=mxgraph.flowchart.start_1;whiteSpace=wrap;" vertex="1" parent="1">
          <mxGeometry x="574.5" y="640" width="125" height="60" as="geometry" />
        </mxCell>
        <mxCell id="cWBNcGxBLnqjklh-X1Ns-45" value="&lt;font face=&quot;B Zar&quot; style=&quot;font-size: 13px&quot;&gt;ثبت دوره&lt;/font&gt;" style="strokeWidth=2;html=1;shape=mxgraph.flowchart.start_1;whiteSpace=wrap;" vertex="1" parent="1">
          <mxGeometry x="550" y="760" width="125" height="60" as="geometry" />
        </mxCell>
        <mxCell id="cWBNcGxBLnqjklh-X1Ns-47" value="&lt;font face=&quot;B Zar&quot; style=&quot;font-size: 13px&quot;&gt;ثبت امتیاز&lt;/font&gt;" style="strokeWidth=2;html=1;shape=mxgraph.flowchart.start_1;whiteSpace=wrap;" vertex="1" parent="1">
          <mxGeometry x="368.25" y="770" width="125" height="60" as="geometry" />
        </mxCell>
        <mxCell id="cWBNcGxBLnqjklh-X1Ns-48" value="" style="endArrow=none;dashed=1;html=1;startArrow=classic;startFill=1;entryX=0.855;entryY=0.145;entryDx=0;entryDy=0;entryPerimeter=0;exitX=0;exitY=0.5;exitDx=0;exitDy=0;exitPerimeter=0;" edge="1" parent="1" source="cWBNcGxBLnqjklh-X1Ns-44" target="cWBNcGxBLnqjklh-X1Ns-20">
          <mxGeometry width="50" height="50" relative="1" as="geometry">
            <mxPoint x="570" y="679" as="sourcePoint" />
            <mxPoint x="464.0274999999999" y="492.65999999999997" as="targetPoint" />
          </mxGeometry>
        </mxCell>
        <mxCell id="cWBNcGxBLnqjklh-X1Ns-49" value="" style="endArrow=none;dashed=1;html=1;startArrow=classic;startFill=1;entryX=0.96;entryY=0.778;entryDx=0;entryDy=0;entryPerimeter=0;" edge="1" parent="1" source="cWBNcGxBLnqjklh-X1Ns-45" target="cWBNcGxBLnqjklh-X1Ns-20">
          <mxGeometry width="50" height="50" relative="1" as="geometry">
            <mxPoint x="584.5" y="680" as="sourcePoint" />
            <mxPoint x="536.875" y="688.7" as="targetPoint" />
          </mxGeometry>
        </mxCell>
        <mxCell id="cWBNcGxBLnqjklh-X1Ns-51" value="&lt;font face=&quot;Times New Roman&quot; style=&quot;font-size: 13px&quot;&gt;include&lt;/font&gt;" style="text;html=1;resizable=0;autosize=1;align=center;verticalAlign=middle;points=[];fillColor=none;strokeColor=none;rounded=0;rotation=0;direction=east;" vertex="1" parent="1">
          <mxGeometry x="518.25" y="650" width="50" height="20" as="geometry" />
        </mxCell>
        <mxCell id="cWBNcGxBLnqjklh-X1Ns-52" value="&lt;font face=&quot;Times New Roman&quot; style=&quot;font-size: 13px&quot;&gt;include&lt;/font&gt;" style="text;html=1;resizable=0;autosize=1;align=center;verticalAlign=middle;points=[];fillColor=none;strokeColor=none;rounded=0;rotation=40;" vertex="1" parent="1">
          <mxGeometry x="550" y="720" width="50" height="20" as="geometry" />
        </mxCell>
        <mxCell id="cWBNcGxBLnqjklh-X1Ns-55" value="" style="endArrow=none;dashed=1;html=1;startArrow=classic;startFill=1;exitX=0.405;exitY=0.989;exitDx=0;exitDy=0;exitPerimeter=0;" edge="1" parent="1" source="cWBNcGxBLnqjklh-X1Ns-20">
          <mxGeometry width="50" height="50" relative="1" as="geometry">
            <mxPoint x="592.8355155482816" y="770" as="sourcePoint" />
            <mxPoint x="438" y="770" as="targetPoint" />
          </mxGeometry>
        </mxCell>
        <mxCell id="cWBNcGxBLnqjklh-X1Ns-56" value="&lt;font face=&quot;Times New Roman&quot; style=&quot;font-size: 13px&quot;&gt;extend&lt;/font&gt;" style="text;html=1;resizable=0;autosize=1;align=center;verticalAlign=middle;points=[];fillColor=none;strokeColor=none;rounded=0;rotation=-45;direction=east;" vertex="1" parent="1">
          <mxGeometry x="410" y="740" width="50" height="20" as="geometry" />
        </mxCell>
      </root>
    </mxGraphModel>
  </diagram>
</mxfile>
